<svg width="25" height="25" viewBox="0 0 13 18" fill="none" xmlns="http://www.w3.org/2000/svg">
<path d="M0.282609 14.5726H12.7625V18H0.282609V14.5726ZM2.47143 11.0564H3.9983L4.7996 8.75342H8.36441L9.1594 11.0564H10.6863L7.36753 2.05044H5.79018L2.47143 11.0564ZM5.26019 7.44756L6.54099 3.72297H6.61671L7.89752 7.44756H5.26019Z" fill="black"/>
<path d="M11.5556 1.47269V11.7816H1.44444V1.47269H11.5556ZM11.5556 0H1.44444C0.65 0 0 0.662712 0 1.47269V11.7816C0 12.5915 0.65 13.2542 1.44444 13.2542H11.5556C12.35 13.2542 13 12.5915 13 11.7816V1.47269C13 0.662712 12.35 0 11.5556 0Z" fill="black"/>
</svg>
