<svg width="17" height="22" viewBox="0 0 17 22" fill="none" xmlns="http://www.w3.org/2000/svg">
<path d="M0.369565 18.6441H16.8539V18.4839V22H0.369565V18.6441ZM3.23187 14.3082H5.22855L6.2764 11.328H10.9381L11.9777 14.3082H13.9744L9.63446 2.65352H7.57177L3.23187 14.3082ZM6.8787 9.63802L8.55361 4.81796H8.65262L10.3275 9.63802H6.8787Z" fill="black"/>
<path d="M15.1111 1.90584V15.2467H1.88889V1.90584H15.1111ZM15.1111 0H1.88889C0.85 0 0 0.857628 0 1.90584V15.2467C0 16.2949 0.85 17.1526 1.88889 17.1526H15.1111C16.15 17.1526 17 16.2949 17 15.2467V1.90584C17 0.857628 16.15 0 15.1111 0Z" fill="black"/>
</svg>
