<svg width="96" height="96" viewBox="0 0 96 96" fill="none" xmlns="http://www.w3.org/2000/svg">
<path d="M20 12C17.8783 12 15.8434 12.8429 14.3431 14.3431C12.8429 15.8434 12 17.8783 12 20" stroke="black" stroke-width="8" stroke-linecap="round" stroke-linejoin="round"/>
<path d="M76 12C78.1217 12 80.1566 12.8429 81.6569 14.3431C83.1571 15.8434 84 17.8783 84 20" stroke="black" stroke-width="8" stroke-linecap="round" stroke-linejoin="round"/>
<path d="M84 76C84 78.1217 83.1571 80.1566 81.6569 81.6569C80.1566 83.1571 78.1217 84 76 84" stroke="black" stroke-width="8" stroke-linecap="round" stroke-linejoin="round"/>
<path d="M20 84C17.8783 84 15.8434 83.1571 14.3431 81.6569C12.8429 80.1566 12 78.1217 12 76" stroke="black" stroke-width="8" stroke-linecap="round" stroke-linejoin="round"/>
<path d="M36 12H40" stroke="black" stroke-width="8" stroke-linecap="round" stroke-linejoin="round"/>
<path d="M36 84H40" stroke="black" stroke-width="8" stroke-linecap="round" stroke-linejoin="round"/>
<path d="M56 12H60" stroke="black" stroke-width="8" stroke-linecap="round" stroke-linejoin="round"/>
<path d="M56 84H60" stroke="black" stroke-width="8" stroke-linecap="round" stroke-linejoin="round"/>
<path d="M12 36V40" stroke="black" stroke-width="8" stroke-linecap="round" stroke-linejoin="round"/>
<path d="M84 36V40" stroke="black" stroke-width="8" stroke-linecap="round" stroke-linejoin="round"/>
<path d="M12 56V60" stroke="black" stroke-width="8" stroke-linecap="round" stroke-linejoin="round"/>
<path d="M84 56V60" stroke="black" stroke-width="8" stroke-linecap="round" stroke-linejoin="round"/>
<path d="M55.4148 39.6875C55.2557 38.1989 54.5852 37.0398 53.4034 36.2102C52.233 35.3807 50.7102 34.9659 48.8352 34.9659C47.517 34.9659 46.3864 35.1648 45.4432 35.5625C44.5 35.9602 43.7784 36.5 43.2784 37.1818C42.7784 37.8636 42.5227 38.642 42.5114 39.517C42.5114 40.2443 42.6761 40.875 43.0057 41.4091C43.3466 41.9432 43.8068 42.3977 44.3864 42.7727C44.9659 43.1364 45.608 43.4432 46.3125 43.6932C47.017 43.9432 47.7273 44.1534 48.4432 44.3239L51.7159 45.142C53.0341 45.4489 54.3011 45.8636 55.517 46.3864C56.7443 46.9091 57.8409 47.5682 58.8068 48.3636C59.7841 49.1591 60.5568 50.1193 61.125 51.2443C61.6932 52.3693 61.9773 53.6875 61.9773 55.1989C61.9773 57.2443 61.4545 59.0455 60.4091 60.6023C59.3636 62.1477 57.8523 63.358 55.875 64.233C53.9091 65.0966 51.5284 65.5284 48.733 65.5284C46.017 65.5284 43.6591 65.108 41.6591 64.267C39.6705 63.4261 38.1136 62.1989 36.9886 60.5852C35.875 58.9716 35.2727 57.0057 35.1818 54.6875H41.4034C41.4943 55.9034 41.8693 56.9148 42.5284 57.7216C43.1875 58.5284 44.0455 59.1307 45.1023 59.5284C46.1705 59.9261 47.3636 60.125 48.6818 60.125C50.0568 60.125 51.2614 59.9205 52.2955 59.5114C53.3409 59.0909 54.1591 58.5114 54.75 57.7727C55.3409 57.0227 55.642 56.1477 55.6534 55.1477C55.642 54.2386 55.375 53.4886 54.8523 52.8977C54.3295 52.2955 53.5966 51.7955 52.6534 51.3977C51.7216 50.9886 50.6307 50.625 49.3807 50.3068L45.4091 49.2841C42.5341 48.5455 40.2614 47.4261 38.5909 45.9261C36.9318 44.4148 36.1023 42.4091 36.1023 39.9091C36.1023 37.8523 36.6591 36.0511 37.7727 34.5057C38.8977 32.9602 40.4261 31.7614 42.358 30.9091C44.2898 30.0455 46.4773 29.6136 48.9205 29.6136C51.3977 29.6136 53.5682 30.0455 55.4318 30.9091C57.3068 31.7614 58.7784 32.9489 59.8466 34.4716C60.9148 35.983 61.4659 37.7216 61.5 39.6875H55.4148Z" fill="black"/>
</svg>
