<svg width="96" height="96" viewBox="0 0 96 96" fill="none" xmlns="http://www.w3.org/2000/svg">
<path d="M20 12C17.8783 12 15.8434 12.8429 14.3431 14.3431C12.8429 15.8434 12 17.8783 12 20" stroke="black" stroke-width="8" stroke-linecap="round" stroke-linejoin="round"/>
<path d="M76 12C78.1217 12 80.1566 12.8429 81.6569 14.3431C83.1571 15.8434 84 17.8783 84 20" stroke="black" stroke-width="8" stroke-linecap="round" stroke-linejoin="round"/>
<path d="M84 76C84 78.1217 83.1571 80.1566 81.6569 81.6569C80.1566 83.1571 78.1217 84 76 84" stroke="black" stroke-width="8" stroke-linecap="round" stroke-linejoin="round"/>
<path d="M20 84C17.8783 84 15.8434 83.1571 14.3431 81.6569C12.8429 80.1566 12 78.1217 12 76" stroke="black" stroke-width="8" stroke-linecap="round" stroke-linejoin="round"/>
<path d="M36 12H40" stroke="black" stroke-width="8" stroke-linecap="round" stroke-linejoin="round"/>
<path d="M36 84H40" stroke="black" stroke-width="8" stroke-linecap="round" stroke-linejoin="round"/>
<path d="M56 12H60" stroke="black" stroke-width="8" stroke-linecap="round" stroke-linejoin="round"/>
<path d="M56 84H60" stroke="black" stroke-width="8" stroke-linecap="round" stroke-linejoin="round"/>
<path d="M12 36V40" stroke="black" stroke-width="8" stroke-linecap="round" stroke-linejoin="round"/>
<path d="M84 36V40" stroke="black" stroke-width="8" stroke-linecap="round" stroke-linejoin="round"/>
<path d="M12 56V60" stroke="black" stroke-width="8" stroke-linecap="round" stroke-linejoin="round"/>
<path d="M84 56V60" stroke="black" stroke-width="8" stroke-linecap="round" stroke-linejoin="round"/>
<path d="M39.1136 30.0909L48.1989 57.5682H48.5568L57.625 30.0909H64.5795L52.2727 65H44.4659L32.1761 30.0909H39.1136Z" fill="black"/>
</svg>
